<svg width="1440" height="922" viewBox="0 0 1440 922" fill="none" xmlns="http://www.w3.org/2000/svg">
<g clip-path="url(#clip0_76_2022)">
<rect width="1440" height="921.6" fill="#070C1B"/>
<rect width="68.5714" height="68.5714" stroke="white" stroke-opacity="0.06" stroke-width="1.37143"/>
<rect x="68.5718" width="68.5714" height="68.5714" stroke="white" stroke-opacity="0.06" stroke-width="1.37143"/>
<rect x="137.143" width="68.5714" height="68.5714" stroke="white" stroke-opacity="0.06" stroke-width="1.37143"/>
<rect x="205.714" width="68.5714" height="68.5714" stroke="white" stroke-opacity="0.06" stroke-width="1.37143"/>
<rect x="274.286" width="68.5714" height="68.5714" stroke="white" stroke-opacity="0.06" stroke-width="1.37143"/>
<rect x="342.857" width="68.5714" height="68.5714" stroke="white" stroke-opacity="0.06" stroke-width="1.37143"/>
<rect x="411.429" width="68.5714" height="68.5714" stroke="white" stroke-opacity="0.06" stroke-width="1.37143"/>
<rect x="480" width="68.5714" height="68.5714" stroke="white" stroke-opacity="0.06" stroke-width="1.37143"/>
<rect x="548.571" width="68.5714" height="68.5714" stroke="white" stroke-opacity="0.06" stroke-width="1.37143"/>
<rect x="617.143" width="68.5714" height="68.5714" stroke="white" stroke-opacity="0.06" stroke-width="1.37143"/>
<rect x="685.714" width="68.5714" height="68.5714" stroke="white" stroke-opacity="0.06" stroke-width="1.37143"/>
<rect x="754.286" width="68.5714" height="68.5714" stroke="white" stroke-opacity="0.06" stroke-width="1.37143"/>
<rect x="822.857" width="68.5714" height="68.5714" stroke="white" stroke-opacity="0.06" stroke-width="1.37143"/>
<rect x="891.429" width="68.5714" height="68.5714" stroke="white" stroke-opacity="0.06" stroke-width="1.37143"/>
<rect x="960" width="68.5714" height="68.5714" stroke="white" stroke-opacity="0.06" stroke-width="1.37143"/>
<rect x="1028.57" width="68.5714" height="68.5714" stroke="white" stroke-opacity="0.06" stroke-width="1.37143"/>
<rect x="1097.14" width="68.5714" height="68.5714" stroke="white" stroke-opacity="0.06" stroke-width="1.37143"/>
<rect x="1165.71" width="68.5714" height="68.5714" stroke="white" stroke-opacity="0.06" stroke-width="1.37143"/>
<rect x="1234.29" width="68.5714" height="68.5714" stroke="white" stroke-opacity="0.06" stroke-width="1.37143"/>
<rect x="1302.86" width="68.5714" height="68.5714" stroke="white" stroke-opacity="0.06" stroke-width="1.37143"/>
<rect x="1371.43" width="68.5714" height="68.5714" stroke="white" stroke-opacity="0.06" stroke-width="1.37143"/>
<rect y="68.5715" width="68.5714" height="68.5714" stroke="white" stroke-opacity="0.06" stroke-width="1.37143"/>
<rect x="68.5718" y="68.5715" width="68.5714" height="68.5714" stroke="white" stroke-opacity="0.06" stroke-width="1.37143"/>
<rect x="137.143" y="68.5715" width="68.5714" height="68.5714" fill="white" fill-opacity="0.05" stroke="white" stroke-opacity="0.06" stroke-width="1.37143"/>
<rect x="205.714" y="68.5715" width="68.5714" height="68.5714" stroke="white" stroke-opacity="0.06" stroke-width="1.37143"/>
<rect x="274.286" y="68.5715" width="68.5714" height="68.5714" stroke="white" stroke-opacity="0.06" stroke-width="1.37143"/>
<rect x="342.857" y="68.5715" width="68.5714" height="68.5714" stroke="white" stroke-opacity="0.06" stroke-width="1.37143"/>
<rect x="411.429" y="68.5715" width="68.5714" height="68.5714" stroke="white" stroke-opacity="0.06" stroke-width="1.37143"/>
<rect x="480" y="68.5715" width="68.5714" height="68.5714" stroke="white" stroke-opacity="0.06" stroke-width="1.37143"/>
<rect x="548.571" y="68.5715" width="68.5714" height="68.5714" stroke="white" stroke-opacity="0.06" stroke-width="1.37143"/>
<rect x="617.143" y="68.5715" width="68.5714" height="68.5714" fill="white" fill-opacity="0.05" stroke="white" stroke-opacity="0.06" stroke-width="1.37143"/>
<rect x="685.714" y="68.5715" width="68.5714" height="68.5714" stroke="white" stroke-opacity="0.06" stroke-width="1.37143"/>
<rect x="754.286" y="68.5715" width="68.5714" height="68.5714" stroke="white" stroke-opacity="0.06" stroke-width="1.37143"/>
<rect x="822.857" y="68.5715" width="68.5714" height="68.5714" stroke="white" stroke-opacity="0.06" stroke-width="1.37143"/>
<rect x="891.429" y="68.5715" width="68.5714" height="68.5714" stroke="white" stroke-opacity="0.06" stroke-width="1.37143"/>
<rect x="960" y="68.5715" width="68.5714" height="68.5714" stroke="white" stroke-opacity="0.06" stroke-width="1.37143"/>
<rect x="1028.57" y="68.5715" width="68.5714" height="68.5714" stroke="white" stroke-opacity="0.06" stroke-width="1.37143"/>
<rect x="1097.14" y="68.5715" width="68.5714" height="68.5714" stroke="white" stroke-opacity="0.06" stroke-width="1.37143"/>
<rect x="1165.71" y="68.5715" width="68.5714" height="68.5714" stroke="white" stroke-opacity="0.06" stroke-width="1.37143"/>
<rect x="1234.29" y="68.5715" width="68.5714" height="68.5714" stroke="white" stroke-opacity="0.06" stroke-width="1.37143"/>
<rect x="1302.86" y="68.5715" width="68.5714" height="68.5714" stroke="white" stroke-opacity="0.06" stroke-width="1.37143"/>
<rect x="1371.43" y="68.5715" width="68.5714" height="68.5714" stroke="white" stroke-opacity="0.06" stroke-width="1.37143"/>
<rect y="137.143" width="68.5714" height="68.5714" stroke="white" stroke-opacity="0.06" stroke-width="1.37143"/>
<rect x="68.5718" y="137.143" width="68.5714" height="68.5714" stroke="white" stroke-opacity="0.06" stroke-width="1.37143"/>
<rect x="137.143" y="137.143" width="68.5714" height="68.5714" stroke="white" stroke-opacity="0.06" stroke-width="1.37143"/>
<rect x="205.714" y="137.143" width="68.5714" height="68.5714" stroke="white" stroke-opacity="0.06" stroke-width="1.37143"/>
<rect x="274.286" y="137.143" width="68.5714" height="68.5714" stroke="white" stroke-opacity="0.06" stroke-width="1.37143"/>
<rect x="342.857" y="137.143" width="68.5714" height="68.5714" stroke="white" stroke-opacity="0.06" stroke-width="1.37143"/>
<rect x="411.429" y="137.143" width="68.5714" height="68.5714" stroke="white" stroke-opacity="0.06" stroke-width="1.37143"/>
<rect x="480" y="137.143" width="68.5714" height="68.5714" stroke="white" stroke-opacity="0.06" stroke-width="1.37143"/>
<rect x="548.571" y="137.143" width="68.5714" height="68.5714" stroke="white" stroke-opacity="0.06" stroke-width="1.37143"/>
<rect x="617.143" y="137.143" width="68.5714" height="68.5714" stroke="white" stroke-opacity="0.06" stroke-width="1.37143"/>
<rect x="685.714" y="137.143" width="68.5714" height="68.5714" stroke="white" stroke-opacity="0.06" stroke-width="1.37143"/>
<rect x="754.286" y="137.143" width="68.5714" height="68.5714" stroke="white" stroke-opacity="0.06" stroke-width="1.37143"/>
<rect x="822.857" y="137.143" width="68.5714" height="68.5714" stroke="white" stroke-opacity="0.06" stroke-width="1.37143"/>
<rect x="891.429" y="137.143" width="68.5714" height="68.5714" stroke="white" stroke-opacity="0.06" stroke-width="1.37143"/>
<rect x="960" y="137.143" width="68.5714" height="68.5714" stroke="white" stroke-opacity="0.06" stroke-width="1.37143"/>
<rect x="1028.57" y="137.143" width="68.5714" height="68.5714" stroke="white" stroke-opacity="0.06" stroke-width="1.37143"/>
<rect x="1097.14" y="137.143" width="68.5714" height="68.5714" fill="white" fill-opacity="0.05" stroke="white" stroke-opacity="0.06" stroke-width="1.37143"/>
<rect x="1165.71" y="137.143" width="68.5714" height="68.5714" stroke="white" stroke-opacity="0.06" stroke-width="1.37143"/>
<rect x="1234.29" y="137.143" width="68.5714" height="68.5714" stroke="white" stroke-opacity="0.06" stroke-width="1.37143"/>
<rect x="1302.86" y="137.143" width="68.5714" height="68.5714" stroke="white" stroke-opacity="0.06" stroke-width="1.37143"/>
<rect x="1371.43" y="137.143" width="68.5714" height="68.5714" stroke="white" stroke-opacity="0.06" stroke-width="1.37143"/>
<rect y="205.715" width="68.5714" height="68.5714" stroke="white" stroke-opacity="0.06" stroke-width="1.37143"/>
<rect x="68.5718" y="205.715" width="68.5714" height="68.5714" stroke="white" stroke-opacity="0.06" stroke-width="1.37143"/>
<rect x="137.143" y="205.715" width="68.5714" height="68.5714" stroke="white" stroke-opacity="0.06" stroke-width="1.37143"/>
<rect x="205.714" y="205.715" width="68.5714" height="68.5714" stroke="white" stroke-opacity="0.06" stroke-width="1.37143"/>
<rect x="274.286" y="205.715" width="68.5714" height="68.5714" stroke="white" stroke-opacity="0.06" stroke-width="1.37143"/>
<rect x="342.857" y="205.715" width="68.5714" height="68.5714" stroke="white" stroke-opacity="0.06" stroke-width="1.37143"/>
<rect x="411.429" y="205.715" width="68.5714" height="68.5714" stroke="white" stroke-opacity="0.06" stroke-width="1.37143"/>
<rect x="480" y="205.715" width="68.5714" height="68.5714" stroke="white" stroke-opacity="0.06" stroke-width="1.37143"/>
<rect x="548.571" y="205.715" width="68.5714" height="68.5714" stroke="white" stroke-opacity="0.06" stroke-width="1.37143"/>
<rect x="617.143" y="205.715" width="68.5714" height="68.5714" stroke="white" stroke-opacity="0.06" stroke-width="1.37143"/>
<rect x="685.714" y="205.715" width="68.5714" height="68.5714" stroke="white" stroke-opacity="0.06" stroke-width="1.37143"/>
<rect x="754.286" y="205.715" width="68.5714" height="68.5714" stroke="white" stroke-opacity="0.06" stroke-width="1.37143"/>
<rect x="822.857" y="205.715" width="68.5714" height="68.5714" stroke="white" stroke-opacity="0.06" stroke-width="1.37143"/>
<rect x="891.429" y="205.715" width="68.5714" height="68.5714" stroke="white" stroke-opacity="0.06" stroke-width="1.37143"/>
<rect x="960" y="205.715" width="68.5714" height="68.5714" stroke="white" stroke-opacity="0.06" stroke-width="1.37143"/>
<rect x="1028.57" y="205.715" width="68.5714" height="68.5714" stroke="white" stroke-opacity="0.06" stroke-width="1.37143"/>
<rect x="1097.14" y="205.715" width="68.5714" height="68.5714" stroke="white" stroke-opacity="0.06" stroke-width="1.37143"/>
<rect x="1165.71" y="205.715" width="68.5714" height="68.5714" stroke="white" stroke-opacity="0.06" stroke-width="1.37143"/>
<rect x="1234.29" y="205.715" width="68.5714" height="68.5714" stroke="white" stroke-opacity="0.06" stroke-width="1.37143"/>
<rect x="1302.86" y="205.715" width="68.5714" height="68.5714" stroke="white" stroke-opacity="0.06" stroke-width="1.37143"/>
<rect x="1371.43" y="205.715" width="68.5714" height="68.5714" stroke="white" stroke-opacity="0.06" stroke-width="1.37143"/>
<rect y="274.286" width="68.5714" height="68.5714" stroke="white" stroke-opacity="0.06" stroke-width="1.37143"/>
<rect x="68.5718" y="274.286" width="68.5714" height="68.5714" stroke="white" stroke-opacity="0.06" stroke-width="1.37143"/>
<rect x="137.143" y="274.286" width="68.5714" height="68.5714" stroke="white" stroke-opacity="0.06" stroke-width="1.37143"/>
<rect x="205.714" y="274.286" width="68.5714" height="68.5714" fill="white" fill-opacity="0.05" stroke="white" stroke-opacity="0.06" stroke-width="1.37143"/>
<rect x="274.286" y="274.286" width="68.5714" height="68.5714" stroke="white" stroke-opacity="0.06" stroke-width="1.37143"/>
<rect x="342.857" y="274.286" width="68.5714" height="68.5714" stroke="white" stroke-opacity="0.06" stroke-width="1.37143"/>
<rect x="411.429" y="274.286" width="68.5714" height="68.5714" stroke="white" stroke-opacity="0.06" stroke-width="1.37143"/>
<rect x="480" y="274.286" width="68.5714" height="68.5714" stroke="white" stroke-opacity="0.06" stroke-width="1.37143"/>
<rect x="548.571" y="274.286" width="68.5714" height="68.5714" stroke="white" stroke-opacity="0.06" stroke-width="1.37143"/>
<rect x="617.143" y="274.286" width="68.5714" height="68.5714" stroke="white" stroke-opacity="0.06" stroke-width="1.37143"/>
<rect x="685.714" y="274.286" width="68.5714" height="68.5714" stroke="white" stroke-opacity="0.06" stroke-width="1.37143"/>
<rect x="754.286" y="274.286" width="68.5714" height="68.5714" stroke="white" stroke-opacity="0.06" stroke-width="1.37143"/>
<rect x="822.857" y="274.286" width="68.5714" height="68.5714" fill="white" fill-opacity="0.05" stroke="white" stroke-opacity="0.06" stroke-width="1.37143"/>
<rect x="891.429" y="274.286" width="68.5714" height="68.5714" stroke="white" stroke-opacity="0.06" stroke-width="1.37143"/>
<rect x="960" y="274.286" width="68.5714" height="68.5714" stroke="white" stroke-opacity="0.06" stroke-width="1.37143"/>
<rect x="1028.57" y="274.286" width="68.5714" height="68.5714" stroke="white" stroke-opacity="0.06" stroke-width="1.37143"/>
<rect x="1097.14" y="274.286" width="68.5714" height="68.5714" stroke="white" stroke-opacity="0.06" stroke-width="1.37143"/>
<rect x="1165.71" y="274.286" width="68.5714" height="68.5714" stroke="white" stroke-opacity="0.06" stroke-width="1.37143"/>
<rect x="1234.29" y="274.286" width="68.5714" height="68.5714" stroke="white" stroke-opacity="0.06" stroke-width="1.37143"/>
<rect x="1302.86" y="274.286" width="68.5714" height="68.5714" stroke="white" stroke-opacity="0.06" stroke-width="1.37143"/>
<rect x="1371.43" y="274.286" width="68.5714" height="68.5714" stroke="white" stroke-opacity="0.06" stroke-width="1.37143"/>
<rect y="342.858" width="68.5714" height="68.5714" stroke="white" stroke-opacity="0.06" stroke-width="1.37143"/>
<rect x="68.5718" y="342.858" width="68.5714" height="68.5714" stroke="white" stroke-opacity="0.06" stroke-width="1.37143"/>
<rect x="137.143" y="342.858" width="68.5714" height="68.5714" stroke="white" stroke-opacity="0.06" stroke-width="1.37143"/>
<rect x="205.714" y="342.858" width="68.5714" height="68.5714" stroke="white" stroke-opacity="0.06" stroke-width="1.37143"/>
<rect x="274.286" y="342.858" width="68.5714" height="68.5714" stroke="white" stroke-opacity="0.06" stroke-width="1.37143"/>
<rect x="342.857" y="342.858" width="68.5714" height="68.5714" stroke="white" stroke-opacity="0.06" stroke-width="1.37143"/>
<rect x="411.429" y="342.858" width="68.5714" height="68.5714" stroke="white" stroke-opacity="0.06" stroke-width="1.37143"/>
<rect x="480" y="342.858" width="68.5714" height="68.5714" stroke="white" stroke-opacity="0.06" stroke-width="1.37143"/>
<rect x="548.571" y="342.858" width="68.5714" height="68.5714" stroke="white" stroke-opacity="0.06" stroke-width="1.37143"/>
<rect x="617.143" y="342.858" width="68.5714" height="68.5714" stroke="white" stroke-opacity="0.06" stroke-width="1.37143"/>
<rect x="685.714" y="342.858" width="68.5714" height="68.5714" stroke="white" stroke-opacity="0.06" stroke-width="1.37143"/>
<rect x="754.286" y="342.858" width="68.5714" height="68.5714" stroke="white" stroke-opacity="0.06" stroke-width="1.37143"/>
<rect x="822.857" y="342.858" width="68.5714" height="68.5714" stroke="white" stroke-opacity="0.06" stroke-width="1.37143"/>
<rect x="891.429" y="342.858" width="68.5714" height="68.5714" stroke="white" stroke-opacity="0.06" stroke-width="1.37143"/>
<rect x="960" y="342.858" width="68.5714" height="68.5714" stroke="white" stroke-opacity="0.06" stroke-width="1.37143"/>
<rect x="1028.57" y="342.858" width="68.5714" height="68.5714" stroke="white" stroke-opacity="0.06" stroke-width="1.37143"/>
<rect x="1097.14" y="342.858" width="68.5714" height="68.5714" stroke="white" stroke-opacity="0.06" stroke-width="1.37143"/>
<rect x="1165.71" y="342.858" width="68.5714" height="68.5714" stroke="white" stroke-opacity="0.06" stroke-width="1.37143"/>
<rect x="1234.29" y="342.858" width="68.5714" height="68.5714" fill="white" fill-opacity="0.05" stroke="white" stroke-opacity="0.06" stroke-width="1.37143"/>
<rect x="1302.86" y="342.858" width="68.5714" height="68.5714" stroke="white" stroke-opacity="0.06" stroke-width="1.37143"/>
<rect x="1371.43" y="342.858" width="68.5714" height="68.5714" stroke="white" stroke-opacity="0.06" stroke-width="1.37143"/>
<rect y="411.428" width="68.5714" height="68.5714" stroke="white" stroke-opacity="0.06" stroke-width="1.37143"/>
<rect x="68.5718" y="411.428" width="68.5714" height="68.5714" stroke="white" stroke-opacity="0.06" stroke-width="1.37143"/>
<rect x="137.143" y="411.428" width="68.5714" height="68.5714" stroke="white" stroke-opacity="0.06" stroke-width="1.37143"/>
<rect x="205.714" y="411.428" width="68.5714" height="68.5714" stroke="white" stroke-opacity="0.06" stroke-width="1.37143"/>
<rect x="274.286" y="411.428" width="68.5714" height="68.5714" stroke="white" stroke-opacity="0.06" stroke-width="1.37143"/>
<rect x="342.857" y="411.428" width="68.5714" height="68.5714" stroke="white" stroke-opacity="0.06" stroke-width="1.37143"/>
<rect x="411.429" y="411.428" width="68.5714" height="68.5714" stroke="white" stroke-opacity="0.06" stroke-width="1.37143"/>
<rect x="480" y="411.428" width="68.5714" height="68.5714" stroke="white" stroke-opacity="0.06" stroke-width="1.37143"/>
<rect x="548.571" y="411.428" width="68.5714" height="68.5714" stroke="white" stroke-opacity="0.06" stroke-width="1.37143"/>
<rect x="617.143" y="411.428" width="68.5714" height="68.5714" stroke="white" stroke-opacity="0.06" stroke-width="1.37143"/>
<rect x="685.714" y="411.428" width="68.5714" height="68.5714" stroke="white" stroke-opacity="0.06" stroke-width="1.37143"/>
<rect x="754.286" y="411.428" width="68.5714" height="68.5714" stroke="white" stroke-opacity="0.06" stroke-width="1.37143"/>
<rect x="822.857" y="411.428" width="68.5714" height="68.5714" stroke="white" stroke-opacity="0.06" stroke-width="1.37143"/>
<rect x="891.429" y="411.428" width="68.5714" height="68.5714" stroke="white" stroke-opacity="0.06" stroke-width="1.37143"/>
<rect x="960" y="411.428" width="68.5714" height="68.5714" stroke="white" stroke-opacity="0.06" stroke-width="1.37143"/>
<rect x="1028.57" y="411.428" width="68.5714" height="68.5714" stroke="white" stroke-opacity="0.06" stroke-width="1.37143"/>
<rect x="1097.14" y="411.428" width="68.5714" height="68.5714" stroke="white" stroke-opacity="0.06" stroke-width="1.37143"/>
<rect x="1165.71" y="411.428" width="68.5714" height="68.5714" stroke="white" stroke-opacity="0.06" stroke-width="1.37143"/>
<rect x="1234.29" y="411.428" width="68.5714" height="68.5714" stroke="white" stroke-opacity="0.06" stroke-width="1.37143"/>
<rect x="1302.86" y="411.428" width="68.5714" height="68.5714" stroke="white" stroke-opacity="0.06" stroke-width="1.37143"/>
<rect x="1371.43" y="411.428" width="68.5714" height="68.5714" stroke="white" stroke-opacity="0.06" stroke-width="1.37143"/>
<rect y="480" width="68.5714" height="68.5714" stroke="white" stroke-opacity="0.06" stroke-width="1.37143"/>
<rect x="68.5718" y="480" width="68.5714" height="68.5714" stroke="white" stroke-opacity="0.06" stroke-width="1.37143"/>
<rect x="137.143" y="480" width="68.5714" height="68.5714" stroke="white" stroke-opacity="0.06" stroke-width="1.37143"/>
<rect x="205.714" y="480" width="68.5714" height="68.5714" stroke="white" stroke-opacity="0.06" stroke-width="1.37143"/>
<rect x="274.286" y="480" width="68.5714" height="68.5714" stroke="white" stroke-opacity="0.06" stroke-width="1.37143"/>
<rect x="342.857" y="480" width="68.5714" height="68.5714" stroke="white" stroke-opacity="0.06" stroke-width="1.37143"/>
<rect x="411.429" y="480" width="68.5714" height="68.5714" stroke="white" stroke-opacity="0.06" stroke-width="1.37143"/>
<rect x="480" y="480" width="68.5714" height="68.5714" stroke="white" stroke-opacity="0.06" stroke-width="1.37143"/>
<rect x="548.571" y="480" width="68.5714" height="68.5714" fill="white" fill-opacity="0.05" stroke="white" stroke-opacity="0.06" stroke-width="1.37143"/>
<rect x="617.143" y="480" width="68.5714" height="68.5714" stroke="white" stroke-opacity="0.06" stroke-width="1.37143"/>
<rect x="685.714" y="480" width="68.5714" height="68.5714" stroke="white" stroke-opacity="0.06" stroke-width="1.37143"/>
<rect x="754.286" y="480" width="68.5714" height="68.5714" stroke="white" stroke-opacity="0.06" stroke-width="1.37143"/>
<rect x="822.857" y="480" width="68.5714" height="68.5714" stroke="white" stroke-opacity="0.06" stroke-width="1.37143"/>
<rect x="891.429" y="480" width="68.5714" height="68.5714" stroke="white" stroke-opacity="0.06" stroke-width="1.37143"/>
<rect x="960" y="480" width="68.5714" height="68.5714" stroke="white" stroke-opacity="0.06" stroke-width="1.37143"/>
<rect x="1028.57" y="480" width="68.5714" height="68.5714" stroke="white" stroke-opacity="0.06" stroke-width="1.37143"/>
<rect x="1097.14" y="480" width="68.5714" height="68.5714" stroke="white" stroke-opacity="0.06" stroke-width="1.37143"/>
<rect x="1165.71" y="480" width="68.5714" height="68.5714" stroke="white" stroke-opacity="0.06" stroke-width="1.37143"/>
<rect x="1234.29" y="480" width="68.5714" height="68.5714" stroke="white" stroke-opacity="0.06" stroke-width="1.37143"/>
<rect x="1302.86" y="480" width="68.5714" height="68.5714" stroke="white" stroke-opacity="0.06" stroke-width="1.37143"/>
<rect x="1371.43" y="480" width="68.5714" height="68.5714" stroke="white" stroke-opacity="0.06" stroke-width="1.37143"/>
<rect y="548.571" width="68.5714" height="68.5714" stroke="white" stroke-opacity="0.06" stroke-width="1.37143"/>
<rect x="68.5718" y="548.571" width="68.5714" height="68.5714" stroke="white" stroke-opacity="0.06" stroke-width="1.37143"/>
<rect x="137.143" y="548.571" width="68.5714" height="68.5714" stroke="white" stroke-opacity="0.06" stroke-width="1.37143"/>
<rect x="205.714" y="548.571" width="68.5714" height="68.5714" stroke="white" stroke-opacity="0.06" stroke-width="1.37143"/>
<rect x="274.286" y="548.571" width="68.5714" height="68.5714" fill="white" fill-opacity="0.05" stroke="white" stroke-opacity="0.06" stroke-width="1.37143"/>
<rect x="342.857" y="548.571" width="68.5714" height="68.5714" stroke="white" stroke-opacity="0.06" stroke-width="1.37143"/>
<rect x="411.429" y="548.571" width="68.5714" height="68.5714" stroke="white" stroke-opacity="0.06" stroke-width="1.37143"/>
<rect x="480" y="548.571" width="68.5714" height="68.5714" stroke="white" stroke-opacity="0.06" stroke-width="1.37143"/>
<rect x="548.571" y="548.571" width="68.5714" height="68.5714" stroke="white" stroke-opacity="0.06" stroke-width="1.37143"/>
<rect x="617.143" y="548.571" width="68.5714" height="68.5714" stroke="white" stroke-opacity="0.06" stroke-width="1.37143"/>
<rect x="685.714" y="548.571" width="68.5714" height="68.5714" stroke="white" stroke-opacity="0.06" stroke-width="1.37143"/>
<rect x="754.286" y="548.571" width="68.5714" height="68.5714" stroke="white" stroke-opacity="0.06" stroke-width="1.37143"/>
<rect x="822.857" y="548.571" width="68.5714" height="68.5714" stroke="white" stroke-opacity="0.06" stroke-width="1.37143"/>
<rect x="891.429" y="548.571" width="68.5714" height="68.5714" stroke="white" stroke-opacity="0.06" stroke-width="1.37143"/>
<rect x="960" y="548.571" width="68.5714" height="68.5714" stroke="white" stroke-opacity="0.06" stroke-width="1.37143"/>
<rect x="1028.57" y="548.571" width="68.5714" height="68.5714" stroke="white" stroke-opacity="0.06" stroke-width="1.37143"/>
<rect x="1097.14" y="548.571" width="68.5714" height="68.5714" stroke="white" stroke-opacity="0.06" stroke-width="1.37143"/>
<rect x="1165.71" y="548.571" width="68.5714" height="68.5714" stroke="white" stroke-opacity="0.06" stroke-width="1.37143"/>
<rect x="1234.29" y="548.571" width="68.5714" height="68.5714" stroke="white" stroke-opacity="0.06" stroke-width="1.37143"/>
<rect x="1302.86" y="548.571" width="68.5714" height="68.5714" stroke="white" stroke-opacity="0.06" stroke-width="1.37143"/>
<rect x="1371.43" y="548.571" width="68.5714" height="68.5714" stroke="white" stroke-opacity="0.06" stroke-width="1.37143"/>
<rect y="617.143" width="68.5714" height="68.5714" stroke="white" stroke-opacity="0.06" stroke-width="1.37143"/>
<rect x="68.5718" y="617.143" width="68.5714" height="68.5714" stroke="white" stroke-opacity="0.06" stroke-width="1.37143"/>
<rect x="137.143" y="617.143" width="68.5714" height="68.5714" stroke="white" stroke-opacity="0.06" stroke-width="1.37143"/>
<rect x="205.714" y="617.143" width="68.5714" height="68.5714" stroke="white" stroke-opacity="0.06" stroke-width="1.37143"/>
<rect x="274.286" y="617.143" width="68.5714" height="68.5714" stroke="white" stroke-opacity="0.06" stroke-width="1.37143"/>
<rect x="342.857" y="617.143" width="68.5714" height="68.5714" stroke="white" stroke-opacity="0.06" stroke-width="1.37143"/>
<rect x="411.429" y="617.143" width="68.5714" height="68.5714" stroke="white" stroke-opacity="0.06" stroke-width="1.37143"/>
<rect x="480" y="617.143" width="68.5714" height="68.5714" stroke="white" stroke-opacity="0.06" stroke-width="1.37143"/>
<rect x="548.571" y="617.143" width="68.5714" height="68.5714" stroke="white" stroke-opacity="0.06" stroke-width="1.37143"/>
<rect x="617.143" y="617.143" width="68.5714" height="68.5714" stroke="white" stroke-opacity="0.06" stroke-width="1.37143"/>
<rect x="685.714" y="617.143" width="68.5714" height="68.5714" stroke="white" stroke-opacity="0.06" stroke-width="1.37143"/>
<rect x="754.286" y="617.143" width="68.5714" height="68.5714" stroke="white" stroke-opacity="0.06" stroke-width="1.37143"/>
<rect x="822.857" y="617.143" width="68.5714" height="68.5714" stroke="white" stroke-opacity="0.06" stroke-width="1.37143"/>
<rect x="891.429" y="617.143" width="68.5714" height="68.5714" stroke="white" stroke-opacity="0.06" stroke-width="1.37143"/>
<rect x="960" y="617.143" width="68.5714" height="68.5714" stroke="white" stroke-opacity="0.06" stroke-width="1.37143"/>
<rect x="1028.57" y="617.143" width="68.5714" height="68.5714" stroke="white" stroke-opacity="0.06" stroke-width="1.37143"/>
<rect x="1097.14" y="617.143" width="68.5714" height="68.5714" stroke="white" stroke-opacity="0.06" stroke-width="1.37143"/>
<rect x="1165.71" y="617.143" width="68.5714" height="68.5714" stroke="white" stroke-opacity="0.06" stroke-width="1.37143"/>
<rect x="1234.29" y="617.143" width="68.5714" height="68.5714" stroke="white" stroke-opacity="0.06" stroke-width="1.37143"/>
<rect x="1302.86" y="617.143" width="68.5714" height="68.5714" stroke="white" stroke-opacity="0.06" stroke-width="1.37143"/>
<rect x="1371.43" y="617.143" width="68.5714" height="68.5714" stroke="white" stroke-opacity="0.06" stroke-width="1.37143"/>
<rect y="685.714" width="68.5714" height="68.5714" stroke="white" stroke-opacity="0.06" stroke-width="1.37143"/>
<rect x="68.5718" y="685.714" width="68.5714" height="68.5714" stroke="white" stroke-opacity="0.06" stroke-width="1.37143"/>
<rect x="137.143" y="685.714" width="68.5714" height="68.5714" stroke="white" stroke-opacity="0.06" stroke-width="1.37143"/>
<rect x="205.714" y="685.714" width="68.5714" height="68.5714" stroke="white" stroke-opacity="0.06" stroke-width="1.37143"/>
<rect x="274.286" y="685.714" width="68.5714" height="68.5714" stroke="white" stroke-opacity="0.06" stroke-width="1.37143"/>
<rect x="342.857" y="685.714" width="68.5714" height="68.5714" stroke="white" stroke-opacity="0.06" stroke-width="1.37143"/>
<rect x="411.429" y="685.714" width="68.5714" height="68.5714" stroke="white" stroke-opacity="0.06" stroke-width="1.37143"/>
<rect x="480" y="685.714" width="68.5714" height="68.5714" stroke="white" stroke-opacity="0.06" stroke-width="1.37143"/>
<rect x="548.571" y="685.714" width="68.5714" height="68.5714" stroke="white" stroke-opacity="0.06" stroke-width="1.37143"/>
<rect x="617.143" y="685.714" width="68.5714" height="68.5714" stroke="white" stroke-opacity="0.06" stroke-width="1.37143"/>
<rect x="685.714" y="685.714" width="68.5714" height="68.5714" stroke="white" stroke-opacity="0.06" stroke-width="1.37143"/>
<rect x="754.286" y="685.714" width="68.5714" height="68.5714" stroke="white" stroke-opacity="0.06" stroke-width="1.37143"/>
<rect x="822.857" y="685.714" width="68.5714" height="68.5714" stroke="white" stroke-opacity="0.06" stroke-width="1.37143"/>
<rect x="891.429" y="685.714" width="68.5714" height="68.5714" stroke="white" stroke-opacity="0.06" stroke-width="1.37143"/>
<rect x="960" y="685.714" width="68.5714" height="68.5714" stroke="white" stroke-opacity="0.06" stroke-width="1.37143"/>
<rect x="1028.57" y="685.714" width="68.5714" height="68.5714" stroke="white" stroke-opacity="0.06" stroke-width="1.37143"/>
<rect x="1097.14" y="685.714" width="68.5714" height="68.5714" stroke="white" stroke-opacity="0.06" stroke-width="1.37143"/>
<rect x="1165.71" y="685.714" width="68.5714" height="68.5714" stroke="white" stroke-opacity="0.06" stroke-width="1.37143"/>
<rect x="1234.29" y="685.714" width="68.5714" height="68.5714" stroke="white" stroke-opacity="0.06" stroke-width="1.37143"/>
<rect x="1302.86" y="685.714" width="68.5714" height="68.5714" stroke="white" stroke-opacity="0.06" stroke-width="1.37143"/>
<rect x="1371.43" y="685.714" width="68.5714" height="68.5714" stroke="white" stroke-opacity="0.06" stroke-width="1.37143"/>
<rect y="754.286" width="68.5714" height="68.5714" stroke="white" stroke-opacity="0.06" stroke-width="1.37143"/>
<rect x="68.5718" y="754.286" width="68.5714" height="68.5714" stroke="white" stroke-opacity="0.06" stroke-width="1.37143"/>
<rect x="137.143" y="754.286" width="68.5714" height="68.5714" stroke="white" stroke-opacity="0.06" stroke-width="1.37143"/>
<rect x="205.714" y="754.286" width="68.5714" height="68.5714" stroke="white" stroke-opacity="0.06" stroke-width="1.37143"/>
<rect x="274.286" y="754.286" width="68.5714" height="68.5714" stroke="white" stroke-opacity="0.06" stroke-width="1.37143"/>
<rect x="342.857" y="754.286" width="68.5714" height="68.5714" stroke="white" stroke-opacity="0.06" stroke-width="1.37143"/>
<rect x="411.429" y="754.286" width="68.5714" height="68.5714" stroke="white" stroke-opacity="0.06" stroke-width="1.37143"/>
<rect x="480" y="754.286" width="68.5714" height="68.5714" stroke="white" stroke-opacity="0.06" stroke-width="1.37143"/>
<rect x="548.571" y="754.286" width="68.5714" height="68.5714" stroke="white" stroke-opacity="0.06" stroke-width="1.37143"/>
<rect x="617.143" y="754.286" width="68.5714" height="68.5714" stroke="white" stroke-opacity="0.06" stroke-width="1.37143"/>
<rect x="685.714" y="754.286" width="68.5714" height="68.5714" stroke="white" stroke-opacity="0.06" stroke-width="1.37143"/>
<rect x="754.286" y="754.286" width="68.5714" height="68.5714" stroke="white" stroke-opacity="0.06" stroke-width="1.37143"/>
<rect x="822.857" y="754.286" width="68.5714" height="68.5714" stroke="white" stroke-opacity="0.06" stroke-width="1.37143"/>
<rect x="891.429" y="754.286" width="68.5714" height="68.5714" stroke="white" stroke-opacity="0.06" stroke-width="1.37143"/>
<rect x="960" y="754.286" width="68.5714" height="68.5714" stroke="white" stroke-opacity="0.06" stroke-width="1.37143"/>
<rect x="1028.57" y="754.286" width="68.5714" height="68.5714" stroke="white" stroke-opacity="0.06" stroke-width="1.37143"/>
<rect x="1097.14" y="754.286" width="68.5714" height="68.5714" stroke="white" stroke-opacity="0.06" stroke-width="1.37143"/>
<rect x="1165.71" y="754.286" width="68.5714" height="68.5714" stroke="white" stroke-opacity="0.06" stroke-width="1.37143"/>
<rect x="1234.29" y="754.286" width="68.5714" height="68.5714" stroke="white" stroke-opacity="0.06" stroke-width="1.37143"/>
<rect x="1302.86" y="754.286" width="68.5714" height="68.5714" stroke="white" stroke-opacity="0.06" stroke-width="1.37143"/>
<rect x="1371.43" y="754.286" width="68.5714" height="68.5714" stroke="white" stroke-opacity="0.06" stroke-width="1.37143"/>
<rect y="822.857" width="68.5714" height="68.5714" stroke="white" stroke-opacity="0.06" stroke-width="1.37143"/>
<rect x="68.5718" y="822.857" width="68.5714" height="68.5714" stroke="white" stroke-opacity="0.06" stroke-width="1.37143"/>
<rect x="137.143" y="822.857" width="68.5714" height="68.5714" stroke="white" stroke-opacity="0.06" stroke-width="1.37143"/>
<rect x="205.714" y="822.857" width="68.5714" height="68.5714" stroke="white" stroke-opacity="0.06" stroke-width="1.37143"/>
<rect x="274.286" y="822.857" width="68.5714" height="68.5714" stroke="white" stroke-opacity="0.06" stroke-width="1.37143"/>
<rect x="342.857" y="822.857" width="68.5714" height="68.5714" stroke="white" stroke-opacity="0.06" stroke-width="1.37143"/>
<rect x="411.429" y="822.857" width="68.5714" height="68.5714" stroke="white" stroke-opacity="0.06" stroke-width="1.37143"/>
<rect x="480" y="822.857" width="68.5714" height="68.5714" stroke="white" stroke-opacity="0.06" stroke-width="1.37143"/>
<rect x="548.571" y="822.857" width="68.5714" height="68.5714" stroke="white" stroke-opacity="0.06" stroke-width="1.37143"/>
<rect x="617.143" y="822.857" width="68.5714" height="68.5714" stroke="white" stroke-opacity="0.06" stroke-width="1.37143"/>
<rect x="685.714" y="822.857" width="68.5714" height="68.5714" stroke="white" stroke-opacity="0.06" stroke-width="1.37143"/>
<rect x="754.286" y="822.857" width="68.5714" height="68.5714" stroke="white" stroke-opacity="0.06" stroke-width="1.37143"/>
<rect x="822.857" y="822.857" width="68.5714" height="68.5714" stroke="white" stroke-opacity="0.06" stroke-width="1.37143"/>
<rect x="891.429" y="822.857" width="68.5714" height="68.5714" stroke="white" stroke-opacity="0.06" stroke-width="1.37143"/>
<rect x="960" y="822.857" width="68.5714" height="68.5714" stroke="white" stroke-opacity="0.06" stroke-width="1.37143"/>
<rect x="1028.57" y="822.857" width="68.5714" height="68.5714" stroke="white" stroke-opacity="0.06" stroke-width="1.37143"/>
<rect x="1097.14" y="822.857" width="68.5714" height="68.5714" stroke="white" stroke-opacity="0.06" stroke-width="1.37143"/>
<rect x="1165.71" y="822.857" width="68.5714" height="68.5714" stroke="white" stroke-opacity="0.06" stroke-width="1.37143"/>
<rect x="1234.29" y="822.857" width="68.5714" height="68.5714" stroke="white" stroke-opacity="0.06" stroke-width="1.37143"/>
<rect x="1302.86" y="822.857" width="68.5714" height="68.5714" stroke="white" stroke-opacity="0.06" stroke-width="1.37143"/>
<rect x="1371.43" y="822.857" width="68.5714" height="68.5714" stroke="white" stroke-opacity="0.06" stroke-width="1.37143"/>
<g filter="url(#filter0_f_76_2022)">
<rect x="-116.571" y="-966.971" width="1738.97" height="1369.64" fill="url(#paint0_radial_76_2022)"/>
</g>
<rect x="-309.257" y="-321.119" width="1978.97" height="1243.4" fill="url(#paint1_radial_76_2022)" stroke="#0A101F" stroke-width="1.37143"/>
</g>
<defs>
<filter id="filter0_f_76_2022" x="-528" y="-1378.4" width="2561.83" height="2192.5" filterUnits="userSpaceOnUse" color-interpolation-filters="sRGB">
<feFlood flood-opacity="0" result="BackgroundImageFix"/>
<feBlend mode="normal" in="SourceGraphic" in2="BackgroundImageFix" result="shape"/>
<feGaussianBlur stdDeviation="205.714" result="effect1_foregroundBlur_76_2022"/>
</filter>
<radialGradient id="paint0_radial_76_2022" cx="0" cy="0" r="1" gradientUnits="userSpaceOnUse" gradientTransform="translate(752.914 -282.151) rotate(90) scale(684.82 869.486)">
<stop offset="0.015625" stop-color="#4D76F4" stop-opacity="0.69"/>
<stop offset="0.223958" stop-color="#4D76F4" stop-opacity="0.34"/>
<stop offset="0.911458" stop-color="#4D76F4" stop-opacity="0"/>
</radialGradient>
<radialGradient id="paint1_radial_76_2022" cx="0" cy="0" r="1" gradientUnits="userSpaceOnUse" gradientTransform="translate(680.229 300.583) rotate(90) scale(621.017 988.8)">
<stop stop-color="#0A101F" stop-opacity="0"/>
<stop offset="0.958333" stop-color="#062F33" stop-opacity="0.66"/>
</radialGradient>
<clipPath id="clip0_76_2022">
<rect width="1440" height="921.6" fill="white"/>
</clipPath>
</defs>
</svg>
