<svg width="160" height="160" viewBox="0 0 160 160" fill="none" xmlns="http://www.w3.org/2000/svg">
<g filter="url(#filter0_b_11_4208)">
<mask id="path-1-inside-1_11_4208" fill="white">
<path fill-rule="evenodd" clip-rule="evenodd" d="M80 160C124.183 160 160 124.183 160 80C160 35.8172 124.183 0 80 0C35.8172 0 0 35.8172 0 80C0 124.183 35.8172 160 80 160ZM68.5752 57.4538C66.181 56.1386 63.2537 57.8688 63.2537 60.6014V101.127C63.2542 101.751 63.4171 102.364 63.7265 102.905C64.0359 103.447 64.481 103.899 65.0181 104.216C65.5551 104.534 66.1656 104.706 66.7893 104.715C67.4131 104.725 68.0286 104.572 68.5752 104.271L105.414 84.0102C105.977 83.7002 106.446 83.2447 106.773 82.6913C107.1 82.138 107.273 81.507 107.273 80.8642C107.273 80.2214 107.1 79.5904 106.773 79.0371C106.446 78.4837 105.977 78.0283 105.414 77.7182L68.5752 57.4538Z"/>
</mask>
<path fill-rule="evenodd" clip-rule="evenodd" d="M80 160C124.183 160 160 124.183 160 80C160 35.8172 124.183 0 80 0C35.8172 0 0 35.8172 0 80C0 124.183 35.8172 160 80 160ZM68.5752 57.4538C66.181 56.1386 63.2537 57.8688 63.2537 60.6014V101.127C63.2542 101.751 63.4171 102.364 63.7265 102.905C64.0359 103.447 64.481 103.899 65.0181 104.216C65.5551 104.534 66.1656 104.706 66.7893 104.715C67.4131 104.725 68.0286 104.572 68.5752 104.271L105.414 84.0102C105.977 83.7002 106.446 83.2447 106.773 82.6913C107.1 82.138 107.273 81.507 107.273 80.8642C107.273 80.2214 107.1 79.5904 106.773 79.0371C106.446 78.4837 105.977 78.0283 105.414 77.7182L68.5752 57.4538Z" fill="url(#paint0_linear_11_4208)"/>
<path d="M68.5752 57.4538L69.5392 55.7014L69.5382 55.7009L68.5752 57.4538ZM63.2537 101.127H61.2537V101.129L63.2537 101.127ZM65.0181 104.216L66.0355 102.494L66.0355 102.494L65.0181 104.216ZM66.7893 104.715L66.8204 102.715L66.8203 102.715L66.7893 104.715ZM68.5752 104.271L69.5388 106.024L69.539 106.024L68.5752 104.271ZM105.414 84.0102L106.378 85.7626L106.378 85.7622L105.414 84.0102ZM106.773 82.6913L108.495 83.7089L108.495 83.7089L106.773 82.6913ZM106.773 79.0371L108.495 78.0195L108.495 78.0195L106.773 79.0371ZM105.414 77.7182L106.378 75.9662L106.378 75.9659L105.414 77.7182ZM158 80C158 123.078 123.078 158 80 158V162C125.287 162 162 125.287 162 80H158ZM80 2C123.078 2 158 36.9218 158 80H162C162 34.7127 125.287 -2 80 -2V2ZM2 80C2 36.9218 36.9218 2 80 2V-2C34.7127 -2 -2 34.7127 -2 80H2ZM80 158C36.9218 158 2 123.078 2 80H-2C-2 125.287 34.7127 162 80 162V158ZM65.2537 60.6014C65.2537 59.3907 66.55 58.6232 67.6123 59.2067L69.5382 55.7009C65.812 53.654 61.2537 56.3469 61.2537 60.6014H65.2537ZM65.2537 101.127V60.6014H61.2537V101.127H65.2537ZM65.4632 101.914C65.3261 101.674 65.2539 101.402 65.2537 101.126L61.2537 101.129C61.2544 102.1 61.5081 103.054 61.9898 103.897L65.4632 101.914ZM66.0355 102.494C65.7975 102.354 65.6003 102.154 65.4632 101.914L61.9898 103.897C62.4715 104.741 63.1645 105.444 64.0007 105.938L66.0355 102.494ZM66.8203 102.715C66.544 102.711 66.2735 102.635 66.0355 102.494L64.0006 105.938C64.8368 106.432 65.7872 106.7 66.7583 106.715L66.8203 102.715ZM67.6117 102.519C67.3694 102.652 67.0967 102.72 66.8204 102.715L66.7583 106.715C67.7294 106.73 68.6877 106.492 69.5388 106.024L67.6117 102.519ZM104.45 82.2577L67.6114 102.519L69.539 106.024L106.378 85.7626L104.45 82.2577ZM105.052 81.6738C104.907 81.919 104.699 82.1208 104.449 82.2582L106.378 85.7622C107.255 85.2795 107.986 84.5704 108.495 83.7089L105.052 81.6738ZM105.273 80.8642C105.273 81.149 105.197 81.4286 105.052 81.6738L108.495 83.7089C109.004 82.8473 109.273 81.8649 109.273 80.8642H105.273ZM105.052 80.0546C105.197 80.2998 105.273 80.5794 105.273 80.8642H109.273C109.273 79.8635 109.004 78.8811 108.495 78.0195L105.052 80.0546ZM104.449 79.4702C104.699 79.6076 104.907 79.8094 105.052 80.0546L108.495 78.0195C107.986 77.158 107.255 76.4489 106.378 75.9662L104.449 79.4702ZM67.6113 59.2062L104.45 79.4706L106.378 75.9659L69.5392 55.7014L67.6113 59.2062Z" fill="url(#paint1_linear_11_4208)" mask="url(#path-1-inside-1_11_4208)"/>
</g>
<defs>
<filter id="filter0_b_11_4208" x="-14.7429" y="-14.7429" width="189.486" height="189.486" filterUnits="userSpaceOnUse" color-interpolation-filters="sRGB">
<feFlood flood-opacity="0" result="BackgroundImageFix"/>
<feGaussianBlur in="BackgroundImageFix" stdDeviation="7.37144"/>
<feComposite in2="SourceAlpha" operator="in" result="effect1_backgroundBlur_11_4208"/>
<feBlend mode="normal" in="SourceGraphic" in2="effect1_backgroundBlur_11_4208" result="shape"/>
</filter>
<linearGradient id="paint0_linear_11_4208" x1="9.03292" y1="150.967" x2="150.967" y2="9.03292" gradientUnits="userSpaceOnUse">
<stop stop-color="white" stop-opacity="0.2"/>
<stop offset="1" stop-color="white" stop-opacity="0.49"/>
</linearGradient>
<linearGradient id="paint1_linear_11_4208" x1="11.2942" y1="12.5837" x2="145.039" y2="155.588" gradientUnits="userSpaceOnUse">
<stop stop-color="white"/>
<stop offset="1" stop-color="white" stop-opacity="0"/>
</linearGradient>
</defs>
</svg>
