<svg width="23" height="21" viewBox="0 0 23 21" fill="none" xmlns="http://www.w3.org/2000/svg">
<g clip-path="url(#clip0_391_23482)">
<path d="M23 2.87C22.1407 3.28043 21.226 3.55027 20.2879 3.67C21.283 3.02999 22.0218 2.03516 22.3675 0.870002C21.4571 1.45 20.4508 1.87 19.3679 2.09C18.9309 1.5886 18.3982 1.18813 17.8041 0.914304C17.2099 0.640479 16.5674 0.499357 15.9179 0.500002C15.1954 0.50771 14.4839 0.686183 13.8369 1.02201C13.1899 1.35784 12.6243 1.8423 12.1825 2.43898C11.7408 3.03566 11.4343 3.72905 11.2862 4.46706C11.1381 5.20507 11.1522 5.9685 11.3275 6.7C9.43954 6.59245 7.5953 6.06584 5.91791 5.15533C4.24053 4.24482 2.7686 2.97137 1.60042 1.42C0.991002 2.53248 0.803513 3.84297 1.07498 5.09268C1.34644 6.34238 2.05712 7.44044 3.06667 8.17C2.31499 8.14141 1.58138 7.92171 0.929583 7.53V7.6C0.929583 10.04 2.55875 12.08 4.715 12.55C4.02137 12.7484 3.29302 12.7758 2.5875 12.63C3.19125 14.64 4.93542 16.1 6.99583 16.14C6.02456 16.9622 4.90457 17.5718 3.70265 17.9326C2.50072 18.2934 1.24148 18.3979 0 18.24C2.14713 19.7176 4.66337 20.5036 7.23542 20.5C15.9179 20.5 20.6521 12.8 20.6521 6.13V5.48C21.5721 4.77 22.3675 3.88 23 2.87Z" fill="white"/>
</g>
<defs>
<clipPath id="clip0_391_23482">
<rect width="23" height="20" fill="white" transform="translate(0 0.5)"/>
</clipPath>
</defs>
</svg>
