<svg width="23" height="23" viewBox="0 0 23 23" fill="none" xmlns="http://www.w3.org/2000/svg">
<g clip-path="url(#clip0_391_23481)">
<path d="M23 11.5671C23 5.18458 17.8537 0 11.5 0C5.14625 0 0 5.175 0 11.5671C0 17.3458 4.20708 22.1375 9.70792 23V14.9117H6.785V11.5671H9.69833V9.01792C9.69833 6.12375 11.4233 4.51375 14.0492 4.51375C15.3046 4.51375 16.6175 4.74375 16.6175 4.74375V7.59H15.18C13.7425 7.59 13.3017 8.48125 13.3017 9.40125V11.5671H16.4833L15.9754 14.9212H13.2921V23C18.8025 22.1375 23 17.3458 23 11.5671Z" fill="white"/>
</g>
<defs>
<clipPath id="clip0_391_23481">
<rect width="23" height="23" fill="white"/>
</clipPath>
</defs>
</svg>
