<svg width="23" height="23" viewBox="0 0 23 23" fill="none" xmlns="http://www.w3.org/2000/svg">
<g clip-path="url(#clip0_391_23483)">
<path d="M16.2713 0.00393694C17.1688 -0.0270518 18.0633 0.125162 18.9 0.451291C19.7367 0.777419 20.4982 1.27062 21.138 1.9008C21.7548 2.54057 22.237 3.29748 22.5562 4.1268C22.8754 4.95611 23.0252 5.84101 22.9966 6.72919V16.271C22.9966 18.2637 22.3451 19.9785 21.0997 21.1856C19.7785 22.4054 18.0302 23.0558 16.233 22.9962H6.76792C4.98579 23.0514 3.25396 22.4007 1.94914 21.1856C1.30234 20.5378 0.795876 19.7637 0.461293 18.9115C0.12671 18.0594 -0.0288213 17.1475 0.00438941 16.2327V6.72919C0.00438941 2.68637 2.68681 0.00393694 6.7296 0.00393694H16.2713ZM16.3192 2.1403H6.76792C5.37881 2.1403 4.1813 2.55225 3.38615 3.33782C2.96127 3.79037 2.632 4.32395 2.41801 4.90665C2.20403 5.48935 2.10973 6.10921 2.14074 6.72919V16.2327C2.14074 17.6697 2.55269 18.8193 3.38615 19.6624C4.31572 20.4845 5.5281 20.9138 6.76792 20.8599H16.233C17.4728 20.9138 18.6852 20.4845 19.6148 19.6624C20.0611 19.2208 20.4107 18.6914 20.6416 18.1076C20.8725 17.5238 20.9796 16.8983 20.956 16.271V6.72919C20.9869 5.4959 20.5408 4.29825 19.7106 3.38572C19.258 2.96084 18.7245 2.63156 18.1418 2.41757C17.5591 2.20359 16.9392 2.10929 16.3192 2.1403ZM11.5005 5.52209C14.7481 5.52209 17.4401 8.20452 17.4401 11.4618C17.4401 13.0371 16.8143 14.5478 15.7004 15.6618C14.5865 16.7757 13.0758 17.4014 11.5005 17.4014C9.92518 17.4014 8.41441 16.7757 7.30051 15.6618C6.18661 14.5478 5.56083 13.0371 5.56083 11.4618C5.56083 9.88647 6.18661 8.37569 7.30051 7.26178C8.41441 6.14787 9.92518 5.52209 11.5005 5.52209ZM11.5005 7.64888C10.4933 7.65391 9.52887 8.05623 8.81671 8.7684C8.10454 9.48058 7.70222 10.445 7.69718 11.4522C7.70222 12.4593 8.10454 13.4238 8.81671 14.136C9.52887 14.8481 10.4933 15.2505 11.5005 15.2555C12.5076 15.2505 13.4721 14.8481 14.1842 14.136C14.8964 13.4238 15.2987 12.4593 15.3038 11.4522C15.2987 10.445 14.8964 9.48058 14.1842 8.7684C13.4721 8.05623 12.5076 7.65391 11.5005 7.64888ZM17.67 4.03717C18.0257 4.03717 18.3669 4.17848 18.6184 4.43C18.8699 4.68153 19.0112 5.02267 19.0112 5.37839C19.0112 5.7341 18.8699 6.07524 18.6184 6.32677C18.3669 6.5783 18.0257 6.71961 17.67 6.71961C17.3143 6.71961 16.9732 6.5783 16.7217 6.32677C16.4701 6.07524 16.3288 5.7341 16.3288 5.37839C16.3288 5.02267 16.4701 4.68153 16.7217 4.43C16.9732 4.17848 17.3143 4.03717 17.67 4.03717Z" fill="white"/>
</g>
<defs>
<clipPath id="clip0_391_23483">
<rect width="23" height="23" fill="white"/>
</clipPath>
</defs>
</svg>
